<svg width="71" height="25" viewBox="0 0 71 25" fill="none" xmlns="http://www.w3.org/2000/svg">
<path d="M7.072 24.48C5.23733 24.48 3.72267 24.0107 2.528 23.072C1.344 22.1333 0.501333 20.864 0 19.264L4.288 18.24C4.384 18.8267 4.69333 19.3387 5.216 19.776C5.73867 20.2027 6.29333 20.416 6.88 20.416C7.28533 20.416 7.71733 20.304 8.176 20.08C8.64533 19.856 8.98133 19.4987 9.184 19.008C9.312 18.6987 9.38667 18.32 9.408 17.872C9.42933 17.424 9.44 16.9067 9.44 16.32V0.959999H13.856V16.32C13.856 17.056 13.8507 17.696 13.84 18.24C13.84 18.784 13.7867 19.296 13.68 19.776C13.584 20.2453 13.3867 20.736 13.088 21.248C12.4373 22.3787 11.5893 23.2 10.544 23.712C9.49867 24.224 8.34133 24.48 7.072 24.48ZM28.0223 24.48C26.1663 24.48 24.5343 24.1067 23.1263 23.36C21.7183 22.6027 20.6196 21.5413 19.8303 20.176C19.0409 18.8107 18.6463 17.2053 18.6463 15.36V0.991999L23.0623 0.959999V15.328C23.0623 16.0853 23.1903 16.7733 23.4463 17.392C23.7023 18.0107 24.0543 18.544 24.5023 18.992C24.9609 19.44 25.4889 19.7867 26.0863 20.032C26.6943 20.2667 27.3396 20.384 28.0223 20.384C28.7263 20.384 29.3769 20.2613 29.9743 20.016C30.5823 19.7707 31.1103 19.424 31.5583 18.976C32.0063 18.528 32.3529 17.9947 32.5983 17.376C32.8543 16.7573 32.9823 16.0747 32.9823 15.328V0.959999H37.3983V15.36C37.3983 17.2053 37.0036 18.8107 36.2143 20.176C35.4249 21.5413 34.3263 22.6027 32.9183 23.36C31.5103 24.1067 29.8783 24.48 28.0223 24.48ZM41.865 24V0.959999H46.281L56.297 16.32V0.959999H60.713V24H56.297L46.281 8.64V24H41.865ZM65.8815 24V19.648H70.2335V24H65.8815Z" fill="#0BAB7C"/>
</svg>
